<?xml version="1.0" encoding="utf-8"?>
<!-- Generator: Adobe Illustrator 16.0.0, SVG Export Plug-In . SVG Version: 6.00 Build 0)  -->
<!DOCTYPE svg PUBLIC "-//W3C//DTD SVG 1.1//EN" "http://www.w3.org/Graphics/SVG/1.1/DTD/svg11.dtd">
<svg version="1.1" id="Layer_1" xmlns="http://www.w3.org/2000/svg" xmlns:xlink="http://www.w3.org/1999/xlink" x="0px" y="0px"
	 width="120.5px" height="16.5px" viewBox="6.2 0.8 120.5 16.5" style="enable-background:new 6.2 0.8 120.5 16.5;"
	 xml:space="preserve">
<g>
	<path d="M25.7,17.1H6.2v-0.6L20.8,1.7h-6H8.7L8.4,5.4H7.5l0.4-4.3h18.3v0.5L11.3,16.4h13.5l0.4-4.6h1L25.7,17.1L25.7,17.1z
		 M116.2,12.1h-8.1l-2.6,4.4h4.7v0.6h-9.2v-0.6h3.5l9.3-15.7h0.5l8.9,15.7h3.4v0.6h-12.1v-0.6h4.1L116.2,12.1L116.2,12.1z
		 M108.5,11.4h7.4l-3.6-6.3h-0.1L108.5,11.4L108.5,11.4z M48.7,12.1h-8.1L38,16.4h4.7v0.6h-9.2v-0.6H37l9.3-15.7h0.5l8.9,15.7h3.4
		v0.6H47.1v-0.6h4.2L48.7,12.1L48.7,12.1z M40.8,11.4h7.4l-3.6-6.3h-0.1L40.8,11.4L40.8,11.4z M71.8,16.4V1.7h-4V1.1h14h5
		c2.7,0,3.4,2.2,3.4,3.6c0,2-0.5,3.6-3.4,4.2c-0.1,0-0.5,0-1,0.1l4.3,7.5h3.4v0.6h-7.7l-4.6-8.1h-4.8v7.5h4v0.6H67.8v-0.6h4V16.4z
		 M76.3,1.7v6.6h4.5c1,0,1.7-0.1,2.3-0.2c0.7-0.1,1.4-0.5,1.8-1c0.5-0.5,0.7-1.4,0.7-2.4c0-0.9-0.3-1.6-0.7-2
		c-0.5-0.5-1-0.7-1.7-0.8c-0.6-0.2-1.5-0.2-2.6-0.2H76.3L76.3,1.7L76.3,1.7z"/>
</g>
</svg>
